%TF.GenerationSoftware,KiCad,Pcbnew,(6.0.10-0)*%
%TF.CreationDate,2023-02-17T09:13:00-08:00*%
%TF.ProjectId,lab4_Exercise2,6c616234-5f45-4786-9572-63697365322e,rev?*%
%TF.SameCoordinates,Original*%
%TF.FileFunction,Copper,L1,Top*%
%TF.FilePolarity,Positive*%
%FSLAX46Y46*%
G04 Gerber Fmt 4.6, Leading zero omitted, Abs format (unit mm)*
G04 Created by KiCad (PCBNEW (6.0.10-0)) date 2023-02-17 09:13:00*
%MOMM*%
%LPD*%
G01*
G04 APERTURE LIST*
G04 Aperture macros list*
%AMRoundRect*
0 Rectangle with rounded corners*
0 $1 Rounding radius*
0 $2 $3 $4 $5 $6 $7 $8 $9 X,Y pos of 4 corners*
0 Add a 4 corners polygon primitive as box body*
4,1,4,$2,$3,$4,$5,$6,$7,$8,$9,$2,$3,0*
0 Add four circle primitives for the rounded corners*
1,1,$1+$1,$2,$3*
1,1,$1+$1,$4,$5*
1,1,$1+$1,$6,$7*
1,1,$1+$1,$8,$9*
0 Add four rect primitives between the rounded corners*
20,1,$1+$1,$2,$3,$4,$5,0*
20,1,$1+$1,$4,$5,$6,$7,0*
20,1,$1+$1,$6,$7,$8,$9,0*
20,1,$1+$1,$8,$9,$2,$3,0*%
G04 Aperture macros list end*
%TA.AperFunction,SMDPad,CuDef*%
%ADD10RoundRect,0.250001X0.624999X-0.462499X0.624999X0.462499X-0.624999X0.462499X-0.624999X-0.462499X0*%
%TD*%
%TA.AperFunction,SMDPad,CuDef*%
%ADD11RoundRect,0.250000X-0.450000X0.350000X-0.450000X-0.350000X0.450000X-0.350000X0.450000X0.350000X0*%
%TD*%
%TA.AperFunction,SMDPad,CuDef*%
%ADD12RoundRect,0.150000X0.825000X0.150000X-0.825000X0.150000X-0.825000X-0.150000X0.825000X-0.150000X0*%
%TD*%
%TA.AperFunction,SMDPad,CuDef*%
%ADD13R,2.290000X3.000000*%
%TD*%
%TA.AperFunction,ComponentPad*%
%ADD14R,3.000000X3.000000*%
%TD*%
%TA.AperFunction,ComponentPad*%
%ADD15C,3.000000*%
%TD*%
%TA.AperFunction,SMDPad,CuDef*%
%ADD16RoundRect,0.250000X-0.425000X0.537500X-0.425000X-0.537500X0.425000X-0.537500X0.425000X0.537500X0*%
%TD*%
%TA.AperFunction,SMDPad,CuDef*%
%ADD17RoundRect,0.250000X-0.475000X0.337500X-0.475000X-0.337500X0.475000X-0.337500X0.475000X0.337500X0*%
%TD*%
%TA.AperFunction,ViaPad*%
%ADD18C,0.800000*%
%TD*%
%TA.AperFunction,Conductor*%
%ADD19C,0.250000*%
%TD*%
G04 APERTURE END LIST*
D10*
%TO.P,D1,1,K*%
%TO.N,Net-(D1-Pad1)*%
X157480000Y-79597500D03*
%TO.P,D1,2,A*%
%TO.N,+9V*%
X157480000Y-76622500D03*
%TD*%
D11*
%TO.P,R2,1*%
%TO.N,/pin_7*%
X130090000Y-86991744D03*
%TO.P,R2,2*%
%TO.N,/pin_2*%
X130090000Y-88991744D03*
%TD*%
%TO.P,R4,1*%
%TO.N,/pin_3*%
X157730000Y-87730000D03*
%TO.P,R4,2*%
%TO.N,Net-(D2-Pad2)*%
X157730000Y-89730000D03*
%TD*%
%TO.P,R3,1*%
%TO.N,Net-(D1-Pad1)*%
X157480000Y-82650000D03*
%TO.P,R3,2*%
%TO.N,/pin_3*%
X157480000Y-84650000D03*
%TD*%
D12*
%TO.P,U1,1,GND*%
%TO.N,GND*%
X149205000Y-92857500D03*
%TO.P,U1,2,TR*%
%TO.N,/pin_2*%
X149205000Y-91587500D03*
%TO.P,U1,3,Q*%
%TO.N,/pin_3*%
X149205000Y-90317500D03*
%TO.P,U1,4,R*%
%TO.N,+9V*%
X149205000Y-89047500D03*
%TO.P,U1,5,CV*%
%TO.N,Net-(C2-Pad1)*%
X144255000Y-89047500D03*
%TO.P,U1,6,THR*%
%TO.N,/pin_2*%
X144255000Y-90317500D03*
%TO.P,U1,7,DIS*%
%TO.N,/pin_7*%
X144255000Y-91587500D03*
%TO.P,U1,8,VCC*%
%TO.N,+9V*%
X144255000Y-92857500D03*
D13*
%TO.P,U1,9*%
%TO.N,N/C*%
X146730000Y-90952500D03*
%TD*%
D11*
%TO.P,R1,1*%
%TO.N,+9V*%
X129825000Y-76831744D03*
%TO.P,R1,2*%
%TO.N,/pin_7*%
X129825000Y-78831744D03*
%TD*%
D14*
%TO.P,J1,1,Pin_1*%
%TO.N,+9V*%
X142430000Y-80260000D03*
D15*
%TO.P,J1,2,Pin_2*%
%TO.N,GND*%
X147510000Y-80260000D03*
%TD*%
D10*
%TO.P,D2,1,K*%
%TO.N,GND*%
X157620000Y-96467500D03*
%TO.P,D2,2,A*%
%TO.N,Net-(D2-Pad2)*%
X157620000Y-93492500D03*
%TD*%
D16*
%TO.P,C1,1*%
%TO.N,/pin_2*%
X130025000Y-94174244D03*
%TO.P,C1,2*%
%TO.N,GND*%
X130025000Y-97049244D03*
%TD*%
D17*
%TO.P,C2,1*%
%TO.N,Net-(C2-Pad1)*%
X137160000Y-92942500D03*
%TO.P,C2,2*%
%TO.N,GND*%
X137160000Y-95017500D03*
%TD*%
D18*
%TO.N,GND*%
X152400000Y-93980000D03*
X160020000Y-93980000D03*
%TO.N,/pin_2*%
X139700000Y-88900000D03*
X137160000Y-88900000D03*
X152252500Y-91587500D03*
X132080000Y-88900000D03*
%TO.N,+9V*%
X152400000Y-96520000D03*
X152400000Y-78740000D03*
X147320000Y-96520000D03*
X154940000Y-91440000D03*
X147320000Y-86360000D03*
%TD*%
D19*
%TO.N,GND*%
X132035756Y-99060000D02*
X149860000Y-99060000D01*
X150327500Y-93980000D02*
X149205000Y-92857500D01*
X149205000Y-98405000D02*
X149860000Y-99060000D01*
X160020000Y-77261828D02*
X160020000Y-93980000D01*
X149205000Y-92857500D02*
X149205000Y-98405000D01*
X149860000Y-99060000D02*
X155027500Y-99060000D01*
X147510000Y-80260000D02*
X152185000Y-75585000D01*
X155027500Y-99060000D02*
X157620000Y-96467500D01*
X152185000Y-75585000D02*
X158343172Y-75585000D01*
X158343172Y-75585000D02*
X160020000Y-77261828D01*
X137160000Y-95017500D02*
X137160000Y-99060000D01*
X130025000Y-97049244D02*
X132035756Y-99060000D01*
X152400000Y-93980000D02*
X150327500Y-93980000D01*
%TO.N,/pin_2*%
X130090000Y-88991744D02*
X130025000Y-89056744D01*
X149205000Y-91587500D02*
X152252500Y-91587500D01*
X141117500Y-90317500D02*
X139700000Y-88900000D01*
X144255000Y-90317500D02*
X141117500Y-90317500D01*
X130025000Y-89056744D02*
X130025000Y-94174244D01*
X137160000Y-88900000D02*
X138577500Y-90317500D01*
X130090000Y-88991744D02*
X131988256Y-88991744D01*
X138577500Y-90317500D02*
X144255000Y-90317500D01*
X131988256Y-88991744D02*
X132080000Y-88900000D01*
%TO.N,/pin_3*%
X157480000Y-87480000D02*
X157730000Y-87730000D01*
X155142500Y-90317500D02*
X149205000Y-90317500D01*
X157730000Y-87730000D02*
X155142500Y-90317500D01*
X157480000Y-84650000D02*
X157480000Y-87480000D01*
%TO.N,+9V*%
X149205000Y-89047500D02*
X147320000Y-87162500D01*
X142430000Y-76390000D02*
X142430000Y-80260000D01*
X130456744Y-76200000D02*
X142240000Y-76200000D01*
X152400000Y-96520000D02*
X154940000Y-93980000D01*
X147320000Y-87162500D02*
X147320000Y-86360000D01*
X142240000Y-76200000D02*
X142430000Y-76390000D01*
X129825000Y-76831744D02*
X130456744Y-76200000D01*
X152400000Y-78740000D02*
X154517500Y-76622500D01*
X144255000Y-92857500D02*
X144255000Y-95995000D01*
X144780000Y-96520000D02*
X147320000Y-96520000D01*
X154517500Y-76622500D02*
X157480000Y-76622500D01*
X154940000Y-93980000D02*
X154940000Y-91440000D01*
X144255000Y-95995000D02*
X144780000Y-96520000D01*
%TO.N,Net-(C2-Pad1)*%
X139700000Y-86360000D02*
X142387500Y-89047500D01*
X137160000Y-90803604D02*
X134620000Y-88263604D01*
X137160000Y-92942500D02*
X137160000Y-90803604D01*
X134620000Y-86360000D02*
X139700000Y-86360000D01*
X134620000Y-88263604D02*
X134620000Y-86360000D01*
X142387500Y-89047500D02*
X144255000Y-89047500D01*
%TO.N,/pin_7*%
X139700000Y-93980000D02*
X142240000Y-91440000D01*
X144107500Y-91440000D02*
X144255000Y-91587500D01*
X132711744Y-86991744D02*
X134620000Y-88900000D01*
X129825000Y-78831744D02*
X129825000Y-86726744D01*
X129825000Y-86726744D02*
X130090000Y-86991744D01*
X130090000Y-86991744D02*
X132711744Y-86991744D01*
X134620000Y-93980000D02*
X139700000Y-93980000D01*
X134620000Y-88900000D02*
X134620000Y-93980000D01*
X142240000Y-91440000D02*
X144107500Y-91440000D01*
%TO.N,Net-(D1-Pad1)*%
X157480000Y-79597500D02*
X157480000Y-82650000D01*
%TO.N,Net-(D2-Pad2)*%
X157730000Y-93382500D02*
X157620000Y-93492500D01*
X157730000Y-89730000D02*
X157730000Y-93382500D01*
%TD*%
M02*
